# xmcd CD database file
#
# Track frame offsets:
#	150
#	2243
#	20566
#	42209
#	62800
#	86661
#	106430
#	131078
#	150916
#	170988
#	188092
#	208380
#
# Disc length: 3087 seconds
#
# Revision: 3
# Processed by: cddbd v1.5.1PL0 Copyright (c) Steve Scherf et al.
# Submitted via: CDex 1.51
#
DISCID=a60c0d0c
DTITLE=GALAXY ANGEL - ANGEL CHARGE
DYEAR=2004
DGENRE=Anime
TTITLE0=Intro〜team mate〜
TTITLE1=b-b-LOVE! - エンジェル隊
TTITLE2=エキサイティング・ロボット - ミルフィーユ・桜葉
TTITLE3=LITTLE シークレット - 蘭花・フランボワーズ
TTITLE4=セレナーデ - ミント・ブラマンシュ
TTITLE5=docchimo kocchimo - ミルフィーユ・桜葉＆蘭花・フランボワーズ＆フォルテ・シュトーレン
TTITLE6=no pain - ヴァニラ・Ｈ
TTITLE7=ブギウギ☆とらぶるメーカー - ミルフィーユ・桜葉
TTITLE8=セシルの朝 - ミント・ブラマンシュ＆ヴァニラ・Ｈ＆烏丸ちとせ
TTITLE9=花いろ日記 - 烏丸ちとせ
TTITLE10=Baby Don't Cry - フォルテ・シュトーレン
TTITLE11=チームメイト〜acoustic vresion〜 - ミルフィーユ・桜葉
EXTD=YEAR: 2004
EXTT0=
EXTT1=
EXTT2=
EXTT3=
EXTT4=
EXTT5=
EXTT6=
EXTT7=
EXTT8=
EXTT9=
EXTT10=
EXTT11=
PLAYORDER=
